<svg data-v-423bf9ae="" xmlns="http://www.w3.org/2000/svg" viewBox="0 0 149.89881725092218 60" class="font"><!----><!----><!----><g data-v-423bf9ae="" id="0ec63e18-92d5-4fe8-8249-b3d432e77c03" fill="black" transform="matrix(5.059021662075736,0,0,5.059021662075736,-1.6188877665707793,-28.17875104936332)"><path d="M4.28 15.93L1.57 15.93L0.32 5.68L2.42 5.68L3.11 11.19L3.70 5.68L5.84 5.68L6.54 11.19L7.11 5.68L9.42 5.68L8.11 15.93L5.66 15.93L4.93 10.11L4.28 15.93ZM12.10 16.04Q10.91 16.04 10.46 15.25Q10.02 14.46 10.02 12.99L10.02 12.99Q10.02 11.79 10.34 11.14Q10.65 10.50 11.21 10.20Q11.77 9.90 12.92 9.53L12.92 9.53L13.59 9.31L13.59 9.28L13.59 8.26Q13.59 7.85 13.43 7.64Q13.27 7.42 13.05 7.42L13.05 7.42Q12.85 7.42 12.71 7.60Q12.56 7.78 12.56 8.09L12.56 8.09L12.56 8.71L10.18 8.71L10.18 8.37Q10.18 6.86 10.88 6.22Q11.59 5.57 13.19 5.57L13.19 5.57Q14.46 5.57 15.26 6.24Q16.06 6.90 16.06 8.12L16.06 8.12L16.06 15.93L13.62 15.93L13.62 14.71Q13.44 15.34 13.04 15.69Q12.64 16.04 12.10 16.04L12.10 16.04ZM13.06 14.14Q13.34 14.14 13.46 13.91Q13.58 13.68 13.58 13.34L13.58 13.34L13.58 10.49Q13.03 10.70 12.78 11.02Q12.52 11.34 12.52 11.91L12.52 11.91L12.52 13.23Q12.52 14.14 13.06 14.14L13.06 14.14ZM19.75 17.43Q18.66 17.43 18.04 17.25Q17.42 17.08 16.81 16.59L16.81 16.59L17.65 15.18Q18.55 15.71 19.43 15.71L19.43 15.71Q20.01 15.71 20.30 15.34Q20.59 14.98 20.59 14.35L20.59 14.35L20.59 13.79Q20.30 14.84 19.04 14.84L19.04 14.84Q17.99 14.84 17.49 14.13Q17.00 13.41 17.00 12.22L17.00 12.22L17.00 8.37Q17.00 7.01 17.45 6.29Q17.91 5.57 19.04 5.57L19.04 5.57Q19.70 5.57 20.08 5.90Q20.47 6.23 20.59 6.83L20.59 6.83L20.59 5.68L23.10 5.68L23.10 14.20Q23.10 15.92 22.30 16.67Q21.50 17.43 19.75 17.43L19.75 17.43ZM20.02 12.99Q20.59 12.99 20.59 11.96L20.59 11.96L20.59 8.30Q20.59 7.99 20.43 7.71Q20.26 7.43 20.01 7.43L20.01 7.43Q19.68 7.43 19.57 7.67Q19.46 7.90 19.46 8.30L19.46 8.30L19.46 11.96Q19.46 12.42 19.57 12.71Q19.68 12.99 20.02 12.99L20.02 12.99ZM26.87 16.04Q23.83 16.04 23.83 12.96L23.83 12.96L23.84 12.15L26.29 12.15L26.31 13.36Q26.31 13.72 26.45 13.91Q26.59 14.10 26.91 14.10L26.91 14.10Q27.40 14.10 27.40 13.30L27.40 13.30Q27.40 12.71 27.17 12.38Q26.94 12.04 26.43 11.66L26.43 11.66L25.13 10.65Q24.46 10.14 24.16 9.58Q23.87 9.03 23.87 8.02L23.87 8.02Q23.87 7.24 24.28 6.69Q24.70 6.13 25.38 5.85Q26.07 5.57 26.91 5.57L26.91 5.57Q29.89 5.57 29.89 8.54L29.89 8.54L29.89 8.74L27.36 8.74L27.36 8.34Q27.36 7.98 27.24 7.72Q27.12 7.46 26.84 7.46L26.84 7.46Q26.59 7.46 26.45 7.61Q26.32 7.76 26.32 8.01L26.32 8.01Q26.32 8.57 26.75 8.88L26.75 8.88L28.27 9.98Q29.08 10.58 29.51 11.29Q29.95 12.00 29.95 13.08L29.95 13.08Q29.95 14.50 29.13 15.27Q28.32 16.04 26.87 16.04L26.87 16.04Z"></path></g><!----><!----></svg>